<svg xmlns="http://www.w3.org/2000/svg" version="1.1" xmlns:xlink="http://www.w3.org/1999/xlink" xmlns:svgjs="http://svgjs.dev/svgjs" width="8000" height="8000" preserveAspectRatio="none" viewBox="0 0 4000 4000"><g clip-path="url(&quot;#SvgjsClipPath1010&quot;)" fill="none"><rect width="4000" height="4000" x="0" y="0" fill="rgba(1, 10, 22, 1)"></rect><circle r="666.665" cx="303.88" cy="-550.88" stroke="#ffffff" stroke-opacity="0.25" stroke-width="2"></circle><circle r="413.08" cx="1457.36" cy="3668.29" stroke="#ffffff" stroke-opacity="0.25" stroke-width="2"></circle><circle r="370.73" cx="3334.5" cy="2803.69" stroke="#ffffff" stroke-opacity="0.25" stroke-width="2"></circle><circle r="1137.485" cx="2630.87" cy="755.31" stroke="#ffffff" stroke-opacity="0.25" stroke-width="2"></circle><circle r="828.44" cx="837.2" cy="766.85" stroke="#ffffff" stroke-opacity="0.25" stroke-width="2"></circle><circle r="578.63" cx="2828" cy="2380.7" stroke="#ffffff" stroke-opacity="0.25" stroke-width="2"></circle><circle r="730.34" cx="2630.88" cy="2474.91" stroke="#ffffff" stroke-opacity="0.25" stroke-width="2"></circle><circle r="904.35" cx="513.33" cy="1994.65" stroke="#ffffff" stroke-opacity="0.25" stroke-width="2"></circle><circle r="1054.135" cx="1752.86" cy="1893.62" stroke="#ffffff" stroke-opacity="0.25" stroke-width="2"></circle><circle r="1262.7" cx="3658.14" cy="3739.31" stroke="#ffffff" stroke-opacity="0.25" stroke-width="2"></circle><circle r="1059.525" cx="1420.72" cy="2550.45" stroke="#ffffff" stroke-opacity="0.25" stroke-width="2"></circle><circle r="542.975" cx="1951.6" cy="3752.68" stroke="#ffffff" stroke-opacity="0.25" stroke-width="2"></circle><circle r="1316.135" cx="2793.32" cy="3598.54" stroke="#ffffff" stroke-opacity="0.25" stroke-width="2"></circle><circle r="1181.86" cx="182.43" cy="857.63" stroke="#ffffff" stroke-opacity="0.25" stroke-width="2"></circle><circle r="707.47" cx="2172.88" cy="1567.02" stroke="#ffffff" stroke-opacity="0.25" stroke-width="2"></circle><circle r="1023.94" cx="268.53" cy="262.52" stroke="#ffffff" stroke-opacity="0.25" stroke-width="2"></circle><circle r="830.225" cx="67.11" cy="662.35" stroke="#ffffff" stroke-opacity="0.25" stroke-width="2"></circle><circle r="851" cx="3167.98" cy="1441.6" stroke="#ffffff" stroke-opacity="0.25" stroke-width="2"></circle><circle r="1134.38" cx="1753.43" cy="3996.56" stroke="#ffffff" stroke-opacity="0.25" stroke-width="2"></circle><circle r="500.145" cx="1044.75" cy="3976.47" stroke="#ffffff" stroke-opacity="0.25" stroke-width="2"></circle><circle r="334.08" cx="3895.81" cy="2803.35" stroke="#ffffff" stroke-opacity="0.25" stroke-width="2"></circle><circle r="1280.225" cx="1281.62" cy="2343.37" stroke="#ffffff" stroke-opacity="0.25" stroke-width="2"></circle><circle r="1035.62" cx="1428.49" cy="891.63" stroke="#ffffff" stroke-opacity="0.25" stroke-width="2"></circle><circle r="1154.715" cx="3573.97" cy="3167.45" stroke="#ffffff" stroke-opacity="0.25" stroke-width="2"></circle><circle r="1083.91" cx="3761.58" cy="2125.93" stroke="#ffffff" stroke-opacity="0.25" stroke-width="2"></circle><circle r="397.315" cx="3782.52" cy="1050.29" stroke="#ffffff" stroke-opacity="0.25" stroke-width="2"></circle><circle r="619.14" cx="2221.14" cy="1419.94" stroke="#ffffff" stroke-opacity="0.25" stroke-width="2"></circle><circle r="357.06" cx="3928.44" cy="3617.66" stroke="#ffffff" stroke-opacity="0.25" stroke-width="2"></circle><circle r="1242.43" cx="1130.31" cy="2010.67" stroke="#ffffff" stroke-opacity="0.25" stroke-width="2"></circle><circle r="1193.63" cx="1455.5" cy="3868.39" stroke="#ffffff" stroke-opacity="0.25" stroke-width="2"></circle><circle r="446.075" cx="833.83" cy="3403.19" stroke="#ffffff" stroke-opacity="0.25" stroke-width="2"></circle></g><defs><clipPath id="SvgjsClipPath1010"><rect width="8000" height="8000" x="0" y="0"></rect></clipPath></defs></svg>